<?xml version="1.0" encoding="UTF-8"?>
<svg width="45px" height="30px" viewBox="0 0 45 30" version="1.1" xmlns="http://www.w3.org/2000/svg" xmlns:xlink="http://www.w3.org/1999/xlink">
    <!-- Generator: Sketch 53.2 (72643) - https://sketchapp.com -->
    <title>icon-sports</title>
    <desc>Created with Sketch.</desc>
    <defs>
        <linearGradient x1="9.27857143%" y1="103.655319%" x2="78.4696691%" y2="34.3175551%" id="linearGradient-1">
            <stop stop-color="#F3C161" offset="0%"></stop>
            <stop stop-color="#BA7900" offset="49.9954841%"></stop>
            <stop stop-color="#FFEDD7" offset="53.5540101%"></stop>
            <stop stop-color="#E1BC71" offset="100%"></stop>
        </linearGradient>
    </defs>
    <g id="icon-sports" stroke="none" stroke-width="1" fill="none" fill-rule="evenodd">
        <g id="ic_sports" transform="translate(10.000000, 3.000000)" fill="url(#linearGradient-1)" fill-rule="nonzero">
            <path d="M12.5,0 C5.59651693,0 0,5.59651693 0,12.5 C0,19.4034831 5.59651693,25 12.5,25 C19.4034831,25 25,19.4034831 25,12.5 C24.9922689,5.59977214 19.4002279,0.00773114584 12.5,0 Z M12.946167,3.60371906 L17.2916666,1.86665854 C17.7848307,2.08984375 18.2619222,2.34700521 18.7194824,2.63631188 L18.7308756,2.6434326 C19.1805012,2.92826334 19.6101887,3.24340823 20.0170899,3.58662923 L20.0520834,3.61714683 C20.2345785,3.77258303 20.4119872,3.9335124 20.5845134,4.09952803 C20.6062825,4.12089031 20.629069,4.14123536 20.6508382,4.16300459 C20.8317057,4.33959959 21.0068766,4.52168781 21.176351,4.70906573 C21.190389,4.7249349 21.2038167,4.74161781 21.2178547,4.75748698 C21.3665771,4.92411298 21.5096029,5.09663901 21.6483561,5.27201334 C21.681722,5.31372073 21.7150879,5.35542808 21.7474365,5.39713541 C21.8979899,5.59204104 22.0436605,5.79040526 22.181193,5.99507651 L21.3149007,9.67753094 L17.0528158,11.0984294 L12.9471842,7.8133138 L12.946167,3.60371906 Z M3.25215656,5.39957683 C3.28450521,5.35786948 3.31746416,5.31616209 3.3508301,5.27465823 C3.48795572,5.10070803 3.62976073,4.93103026 3.7762451,4.76542156 C3.79211427,4.74792479 3.80676271,4.73002115 3.82242839,4.71252442 C3.99088541,4.52473959 4.1652425,4.34285479 4.34590656,4.16666666 C4.36665854,4.14632161 4.38741047,4.12495933 4.40917969,4.10624188 C4.58028156,3.94124349 4.75626625,3.78133135 4.9371338,3.62670896 L4.97884115,3.59171553 C5.3820801,3.25093589 5.80769854,2.93782553 6.25284834,2.65421553 L6.26912437,2.64383953 C6.72403969,2.35514323 7.19807942,2.09838865 7.68839521,1.875 L12.053833,3.60371906 L12.053833,7.81209313 L7.94799802,11.0965983 L3.68591307,9.67834474 L2.81962079,5.99589031 C2.95837401,5.79162599 3.10241698,5.59366865 3.25215656,5.39957683 Z M2.75004068,18.8938395 C2.62756349,18.7070719 2.51037599,18.5168458 2.39868166,18.3229574 L2.37162271,18.2761638 C2.26053875,18.0832926 2.15535479,17.8871664 2.05627443,17.6879883 L2.05281573,17.6816813 C1.84407553,17.2625732 1.66076661,16.8312581 1.50410969,16.389974 L1.50410969,16.385905 C1.4300537,16.1775716 1.36250813,15.964152 1.30004885,15.7495117 L1.27746584,15.6703695 C1.22029625,15.46875 1.16841635,15.2648926 1.12202964,15.0587972 C1.11796063,15.0386556 1.11287438,15.0195312 1.10880531,14.9995931 C1.00646974,14.5340984 0.933024063,14.0629069 0.888671875,13.5882569 L3.43241375,10.5358887 L7.66499839,11.9466146 L8.8934326,16.8599448 L6.875,19.5454916 L2.75004068,18.8938395 Z M15.2746583,23.830363 C15.0663249,23.8820394 14.8524984,23.926595 14.6386719,23.9666747 C14.6087646,23.9725749 14.5782471,23.9774577 14.5483399,23.9829509 C14.3662516,24.0155029 14.1821289,24.0433756 13.9975993,24.0661621 C13.9483643,24.072469 13.8995361,24.0791829 13.8505046,24.085083 C13.6791992,24.1050211 13.5062663,24.1200765 13.3329265,24.132487 C13.2784016,24.136149 13.2244873,24.1416422 13.1699625,24.1451009 C12.948405,24.1587321 12.7250163,24.1666666 12.5,24.1666666 C12.2939046,24.1666666 12.08903,24.1611735 11.885376,24.1503906 C11.8607584,24.1503906 11.8371582,24.1463216 11.8125407,24.1444906 C11.6312663,24.1341146 11.4508057,24.1204834 11.270752,24.1029866 L11.25,24.0991211 C10.8555094,24.0563965 10.4632568,23.9937338 10.0750732,23.9117431 L7.61047365,20.0528971 L9.59716797,17.4037679 L15.402832,17.4037679 L17.4220785,20.0703939 L15.2746583,23.830363 Z M23.8942464,15 C23.889974,15.0199381 23.8850911,15.039266 23.8808188,15.0592041 C23.8342285,15.265096 23.7823486,15.4689535 23.7253825,15.6707764 L23.7030029,15.7499186 C23.6403401,15.9645589 23.572998,16.1771648 23.4987386,16.3863119 L23.4987386,16.3903809 C23.3420818,16.831665 23.1589762,17.2629801 22.9500325,17.6820883 L22.9465739,17.6883952 C22.8468831,17.8877766 22.7419026,18.083903 22.6312256,18.2765706 L22.6041666,18.3233643 C22.4930828,18.517863 22.3760986,18.7076823 22.253418,18.8934326 L18.1424967,19.541626 L16.110026,16.8583171 L17.33785,11.9462077 L21.5704346,10.5354818 L24.1141765,13.58785 C24.0700276,14.0627035 23.996582,14.5343018 23.8942464,15 Z" id="Shape"></path>
        </g>
    </g>
</svg>