<?xml version="1.0" encoding="UTF-8"?>
<svg width="45px" height="30px" viewBox="0 0 45 30" version="1.1" xmlns="http://www.w3.org/2000/svg" xmlns:xlink="http://www.w3.org/1999/xlink">
    <!-- Generator: Sketch 50.2 (55047) - http://www.bohemiancoding.com/sketch -->
    <title>icon-slots</title>
    <desc>Created with Sketch.</desc>
    <defs>
        <linearGradient x1="9.27857143%" y1="103.655319%" x2="90.5585714%" y2="-1.18191489%" id="linearGradient-1">
            <stop stop-color="#F3C161" offset="0%"></stop>
            <stop stop-color="#BA7900" offset="49.9954841%"></stop>
            <stop stop-color="#FFEDD7" offset="53.5540101%"></stop>
            <stop stop-color="#E1BC71" offset="100%"></stop>
        </linearGradient>
        <polygon id="path-2" points="0 24.4186047 35.7170089 24.4186047 35.7170089 0.169830295 0 0.169830295"></polygon>
    </defs>
    <g id="icon-slots" stroke="none" stroke-width="1" fill="none" fill-rule="evenodd">
        <g id="ic_slot" transform="translate(5.000000, 4.000000)">
            <polygon id="Fill-1" fill="url(#linearGradient-1)" points="2.33190904 13.0412729 4.34635798 11.9291016 6.36185557 13.0434783 5.97742195 10.6841666 7.60869565 9.01381448 5.35494569 8.66911414 4.34929419 6.52173913 3.34112594 8.66801146 1.08695652 9.0116091 2.71697185 10.6830639"></polygon>
            <polygon id="Fill-2" fill="url(#linearGradient-1)" points="12.1147275 13.0412729 14.1289667 11.9291016 16.1444643 13.0434783 15.7600306 10.6841666 17.3913043 9.01381448 15.1375544 8.66911414 14.1316932 6.52173913 13.1239444 8.66801146 10.8695652 9.0116091 12.4995805 10.6830639"></polygon>
            <polygon id="Fill-3" fill="url(#linearGradient-1)" points="20.8098305 13.0412729 22.824409 11.9291016 24.8400362 13.0434783 24.4557876 10.6841666 26.0869565 9.01381448 23.8330616 8.66911414 22.8273454 6.52173913 21.8189026 8.66801146 19.5652174 9.0116091 21.1949181 10.6830639"></polygon>
            <g id="Group-9">
                <mask id="mask-3" fill="white">
                    <use xlink:href="#path-2"></use>
                </mask>
                <g id="Clip-8"></g>
                <path d="M19.5610709,16.4836581 L27.488909,16.4836581 L27.488909,4.69981144 L19.5610709,4.69981144 L19.5610709,16.4836581 Z M10.3439211,16.4836581 L18.2715378,16.4836581 L18.2715378,4.69981144 L10.3439211,4.69981144 L10.3439211,16.4836581 Z M1.12654992,16.4836581 L9.05416667,16.4836581 L9.05416667,4.69981144 L1.12654992,4.69981144 L1.12654992,16.4836581 Z M30.7514895,5.7066939 C30.7514895,6.46411062 31.1918881,7.11945317 31.8324477,7.43425519 L31.8324477,14.17445 L29.7026369,14.17445 L29.7026369,4.39160905 C29.7026369,3.35172847 28.8541667,2.50895663 27.8073068,2.50895663 L24.6319646,2.50895663 L24.6319646,0.456033941 C24.6319646,0.297862979 24.0629227,0.169830295 23.3610306,0.169830295 L5.25464976,0.169830295 C4.55275765,0.169830295 3.98349436,0.297862979 3.98349436,0.456033941 L3.98349436,2.50895663 L0.807930757,2.50895663 C-0.238707729,2.50895663 -1.08695652,3.35172847 -1.08695652,4.39160905 L-1.08695652,21.6896579 C-1.08695652,22.7295384 -0.238707729,23.5720903 0.807930757,23.5720903 L27.8073068,23.5720903 C28.8541667,23.5720903 29.7026369,22.7295384 29.7026369,21.6896579 L29.7026369,17.0758642 L33.5490942,17.0758642 L33.5490942,15.6250471 L33.5490942,14.17445 L33.5490942,7.43425519 C34.189211,7.11945317 34.6300523,6.46411062 34.6300523,5.7066939 C34.6300523,4.64261471 33.7616546,3.77982401 32.6908816,3.77982401 C31.6196659,3.77982401 30.7514895,4.64261471 30.7514895,5.7066939 Z" id="Fill-7" fill="url(#linearGradient-1)" mask="url(#mask-3)"></path>
            </g>
        </g>
    </g>
</svg>