<?xml version="1.0" encoding="UTF-8"?>
<svg width="45px" height="30px" viewBox="0 0 45 30" version="1.1" xmlns="http://www.w3.org/2000/svg" xmlns:xlink="http://www.w3.org/1999/xlink">
    <!-- Generator: Sketch 50.2 (55047) - http://www.bohemiancoding.com/sketch -->
    <title>icon-fish</title>
    <desc>Created with Sketch.</desc>
    <defs>
        <linearGradient x1="9.27857143%" y1="103.655319%" x2="90.5585714%" y2="-1.18191489%" id="linearGradient-1">
            <stop stop-color="#F3C161" offset="0%"></stop>
            <stop stop-color="#BA7900" offset="49.9954841%"></stop>
            <stop stop-color="#FFEDD7" offset="53.5540101%"></stop>
            <stop stop-color="#E1BC71" offset="100%"></stop>
        </linearGradient>
        <polygon id="path-2" points="0 0 18.9063825 0 18.9063825 23.4978451 0 23.4978451"></polygon>
    </defs>
    <g id="icon-fish" stroke="none" stroke-width="1" fill="none" fill-rule="evenodd">
        <g id="ic_fishing-copy">
            <path d="M19.878065,19.5661904 C19.3413404,19.5180674 18.9427318,19.0210697 18.9880988,18.4839695 C19.0333024,17.94616 19.4783672,17.5678328 19.9823056,17.6129004 C20.4861351,17.6586772 20.8844714,18.1131172 20.8721085,18.6539276 C20.8598,19.1939741 20.4148441,19.6148044 19.878065,19.5661904 M43.2469638,14.5308488 C42.156141,14.3208974 41.0939654,14.0384342 40.0642492,13.6891881 C40.1028084,12.3066079 40.0865243,10.9418147 40.0171939,9.60091931 C39.9129533,8.03703238 39.2609323,8.15657591 38.5085374,9.74501537 C37.8217695,11.1596229 37.0460104,12.5306361 36.1834386,13.842505 C35.8720784,14.316096 35.6379456,14.7616971 35.4909522,15.1573747 C34.3236101,14.8785126 32.8445266,14.8677094 31.1961746,14.9474779 C31.4550878,14.0646781 31.859306,13.1040195 31.8575632,13.1032011 C29.7444311,14.3232435 27.7574334,13.8696219 26.4074253,13.2710858 C25.0325279,12.6696034 24.2945655,11.923152 24.1046559,12.4894424 C23.8181305,13.6357181 21.6262461,15.9381451 21.5846915,15.9022439 C18.9377213,16.3272754 16.5604477,16.8994584 14.8554006,17.9918277 C14.280498,18.3584788 14.3291872,19.2359316 14.9065406,19.7962749 C15.73796,20.6001246 16.6123501,21.3567244 17.5270967,22.0598543 C16.6830965,22.074313 15.8303279,22.0431586 14.9709693,21.9642631 C14.1868775,21.8880957 13.7893582,22.3926774 14.2736358,23.0729462 C15.509818,24.7946786 17.7755531,26.3521273 20.6598694,26.9625031 C22.5743235,25.7855641 24.0872825,23.8692665 24.8561249,21.6081969 C24.7863044,23.4177182 24.217556,25.4091465 22.9934643,27.2389101 C23.9982369,27.2672819 25.0424944,27.1822756 26.098298,26.9692687 C26.6583869,26.8563271 27.2065486,26.7135405 27.7397332,26.5441826 C28.3829314,27.020829 29.4670553,27.7768287 29.6688921,28.2677701 C29.8089688,28.6305474 31.0132362,27.9668652 32.3094358,27.1740368 C33.6158742,26.399159 35.0135368,25.4962262 35.8858573,25.7234734 C35.7443102,25.6727316 33.8501705,24.691558 33.1139509,23.5965698 C35.0111405,22.0124952 36.2881149,20.1751477 36.8881246,18.5898182 C37.2485552,18.636959 37.7082704,18.594565 38.2396033,18.4323546 C39.6986992,17.9868626 41.1661278,17.3921458 42.6271299,16.6378922 C44.2829976,15.756129 44.5286764,14.7401454 43.2469638,14.5308488" id="Fill-4" fill="url(#linearGradient-1)"></path>
            <g id="Page-1" transform="translate(12.039707, 13.747111) rotate(-10.000000) translate(-12.039707, -13.747111) translate(2.257098, 1.518850)">
                <mask id="mask-3" fill="white">
                    <use xlink:href="#path-2"></use>
                </mask>
                <g id="Clip-2"></g>
                <path d="M7.45033337,13.1161549 C7.33371898,13.0070011 7.19894601,12.9133282 7.04675751,12.841208 C6.25897187,12.4680459 5.31709362,12.8029694 4.94319383,13.5892934 C4.79444199,13.902108 4.75961093,14.2390709 4.81933459,14.5553618 L1.86733278,16.7857594 C-0.00787848406,18.202672 -0.555469153,20.5880169 0.612996731,22.1287762 C3.17442628,25.5060063 7.56425415,21.9524153 7.9975525,18.8252422 C7.9975525,18.8252422 5.85307394,20.445584 4.71744213,20.4307058 C4.71744213,20.4307058 4.96655386,20.759233 4.75640648,21.4701458 C3.58677956,22.1119975 2.37549469,21.9812912 1.79869238,21.2210621 C1.1387135,20.3509841 1.55989065,18.8643614 2.75747529,17.9594284 L5.73808501,15.7074318 C6.51635016,16.047222 7.42938829,15.7119277 7.79613611,14.9406675 C7.89120167,14.7408072 7.93996515,14.5309354 7.9475351,14.3229176 C8.84928797,13.7911467 9.96202416,13.0647993 11.1364345,12.1316393 C13.7108677,10.0860846 17.0605937,6.62700079 18.3984314,1.76324067 C20.102181,-4.43136058 17.7798783,7.22848184 7.45033337,13.1161549" id="Fill-1" fill="url(#linearGradient-1)" mask="url(#mask-3)"></path>
            </g>
        </g>
    </g>
</svg>