<?xml version="1.0" encoding="UTF-8"?>
<svg width="45px" height="30px" viewBox="0 0 45 30" version="1.1" xmlns="http://www.w3.org/2000/svg" xmlns:xlink="http://www.w3.org/1999/xlink">
    <!-- Generator: Sketch 55 (78076) - https://sketchapp.com -->
    <title>icon-new</title>
    <desc>Created with Sketch.</desc>
    <defs>
        <linearGradient x1="9.27857143%" y1="67.9841928%" x2="90.5585714%" y2="32.8448429%" id="linearGradient-1">
            <stop stop-color="#F3C161" offset="0%"></stop>
            <stop stop-color="#BA7900" offset="49.9954841%"></stop>
            <stop stop-color="#FFEDD7" offset="53.5540101%"></stop>
            <stop stop-color="#E1BC71" offset="100%"></stop>
        </linearGradient>
    </defs>
    <g id="icon-new" stroke="none" stroke-width="1" fill="none" fill-rule="evenodd">
        <g id="Group-25" transform="translate(3.000000, 4.000000)">
            <path d="M9.81737194,0.16988417 L38,6.2007722 L34.6146993,22 L6.43207127,15.969112 L6.00890869,15.8841699 L0,6.7953668 L9.39420935,0 L9.81737194,0.16988417 Z M13.8797327,12.3166023 L14.8953229,12.5714286 L15.6570156,9.08880309 L17.0957684,12.996139 L18.1959911,13.2509653 L19.2962138,7.8996139 L18.2806236,7.64478764 L17.4342984,11.2123552 L15.9955457,7.22007722 L14.9799555,6.96525097 L13.8797327,12.3166023 Z M19.2115813,13.4208494 L23.2739421,14.2702703 L23.4432071,13.3359073 L20.481069,12.7413127 L20.8195991,11.2972973 L23.5278396,11.8918919 L23.6971047,10.957529 L20.9888641,10.3629344 L21.2427617,9.17374517 L24.1202673,9.76833977 L24.2895323,8.83397683 L20.311804,7.98455598 L19.2115813,13.4208494 Z M24.9665924,14.6949807 L26.1514477,14.9498069 L28.0979955,11.2123552 L28.3518931,15.4594595 L29.4521158,15.7142857 L31.9064588,10.6177606 L30.8062361,10.3629344 L29.1982183,13.9305019 L29.0289532,10.023166 L27.7594655,9.76833977 L25.8975501,13.1660232 L25.8975501,9.34362934 L24.7973274,9.08880309 L24.9665924,14.6949807 Z M8.80178174,10.023166 C9.73273942,10.1930502 10.5790646,9.5984556 10.8329621,8.74903475 C11.0022272,7.81467181 10.4097996,6.96525097 9.56347439,6.71042471 C8.6325167,6.54054054 7.78619154,7.13513514 7.53229399,7.98455598 C7.27839644,8.83397683 7.87082405,9.76833977 8.80178174,10.023166 Z" id="Combined-Shape" fill="url(#linearGradient-1)"></path>
            <polygon id="Combined-Shape-Copy-2_2_" stroke="#223140" points="7.77411168 14.4225352 3 7.15492958 10.3705584 2 10.7055838 2.08450704 36 7.49295775 33.4035533 20 8.10913706 14.5915493"></polygon>
        </g>
    </g>
</svg>