<?xml version="1.0" encoding="UTF-8"?>
<svg width="45px" height="30px" viewBox="0 0 45 30" version="1.1" xmlns="http://www.w3.org/2000/svg" xmlns:xlink="http://www.w3.org/1999/xlink">
    <!-- Generator: Sketch 50.2 (55047) - http://www.bohemiancoding.com/sketch -->
    <title>icon-poker</title>
    <desc>Created with Sketch.</desc>
    <defs>
        <linearGradient x1="9.27857143%" y1="103.655319%" x2="90.5585714%" y2="-1.18191489%" id="linearGradient-1">
            <stop stop-color="#F3C161" offset="0%"></stop>
            <stop stop-color="#BA7900" offset="49.9954841%"></stop>
            <stop stop-color="#FFEDD7" offset="53.5540101%"></stop>
            <stop stop-color="#E1BC71" offset="100%"></stop>
        </linearGradient>
    </defs>
    <g id="icon-poker" stroke="none" stroke-width="1" fill="none" fill-rule="evenodd">
        <g id="ic_poker" transform="translate(10.000000, 3.000000)" fill="url(#linearGradient-1)">
            <path d="M15.4376823,17.2771664 C15.4340763,17.2682803 15.4304893,17.2593557 15.4269215,17.2503923 C15.423308,17.2591773 15.419677,17.2679247 15.4160286,17.2766346 C15.2093948,19.6525072 13.9987751,21.3206849 13.9987751,21.3206849 L15.4269215,21.3206849 L16.8550678,21.3206849 C16.8550678,21.3206849 15.6439317,19.6880758 15.4376823,17.2771664 Z M22.5360713,25 L8.01948421,25 C7.18302658,25 6.48148148,24.3352897 6.48148148,23.5427504 L6.48148148,5.16095327 C6.48148148,4.36841403 7.18302658,3.7037037 8.01948421,3.7037037 L22.5360713,3.7037037 C23.372529,3.7037037 24.0740741,4.36841403 24.0740741,5.16095327 L24.0740741,23.5427504 C24.0740741,24.3608555 23.372529,25 22.5360713,25 Z M15.4376823,17.2771664 C16.4650794,19.8089423 19.0335504,19.2055493 19.677357,17.8910865 C20.2894197,16.6096981 19.8813779,14.9137428 18.1131967,13.5192907 C16.3450155,12.1625265 15.460925,10.7303865 15.4269215,10.6926986 C15.392918,10.7303865 14.5428309,12.1625265 12.7406462,13.5192907 C10.9384616,14.9137428 10.5304197,16.6096981 11.1764859,17.8910865 C11.8203375,19.1680824 14.3553515,19.8087691 15.4160286,17.2766346 C15.4200441,17.2304642 15.4236805,17.1840265 15.4269215,17.1373286 C15.4301269,17.1842245 15.433719,17.2308391 15.4376823,17.2771664 Z M8.15026455,5.39726631 L8.15026455,11.9746472 L9.21869844,11.9746472 L9.21869844,9.70849079 L10.0131749,8.92546925 L12.5883746,11.9746472 L14.0312169,11.9746472 L10.7345961,8.21614386 L13.602017,5.39726631 L12.2504938,5.39726631 L9.21869844,8.50171642 L9.21869844,5.39726631 L8.15026455,5.39726631 Z" id="Combined-Shape"></path>
            <path d="M5.55555556,22.8266804 L5.14985496,22.8982163 C4.36946027,23.035821 3.60653586,22.5364654 3.47728992,21.8034752 L0.479617899,4.80283235 C0.350371956,4.06984219 0.896496714,3.3396659 1.67689141,3.20206126 L15.2205154,0.813954929 C16.0009101,0.676350289 16.7638345,1.17570589 16.8930804,1.90869606 L17.046323,2.77777778 L7.55555556,2.77777778 C6.45098606,2.77777778 5.55555556,3.67320828 5.55555556,4.77777778 L5.55555556,22.8266804 Z" id="Combined-Shape-Copy"></path>
        </g>
    </g>
</svg>