<svg xmlns="http://www.w3.org/2000/svg" width="45" height="30" viewBox="0 0 45 30">
  <defs>
    <linearGradient id="icon-rngtable-a" x1="9.279%" x2="90.559%" y1="103.655%" y2="-1.182%">
      <stop offset="0%" stop-color="#F3C161"/>
      <stop offset="49.995%" stop-color="#BA7900"/>
      <stop offset="53.554%" stop-color="#FFEDD7"/>
      <stop offset="100%" stop-color="#E1BC71"/>
    </linearGradient>
  </defs>
  <g fill="url(#icon-rngtable-a)" fill-rule="evenodd" transform="translate(10 3)">
    <path d="M6.25,12.5 C6.25,15.9517486 9.04841838,18.75 12.500373,18.75 C15.9523277,18.75 18.75,15.9517486 18.75,12.5 C18.75,9.04825137 15.9523277,6.25 12.500373,6.25 C9.04841838,6.25 6.25,9.04825137 6.25,12.5 Z"/>
    <path d="M12.5,21.2798068 C7.65141861,21.2798068 3.72006842,17.3500017 3.72006842,12.5004192 C3.72006842,7.65167522 7.65141861,3.72103163 12.5,3.72103163 C17.3485814,3.72103163 21.2790932,7.65167522 21.2790932,12.5004192 C21.2790932,17.3500017 17.3485814,21.2798068 12.5,21.2798068 Z M21.969951,15.2379515 L24.2923737,16.613006 C24.7426051,15.3234732 25,13.943388 25,12.5004192 C25,11.0582889 24.7426051,9.67820371 24.2932122,8.38867089 L21.969951,9.76288694 L21.0854182,8.26709595 L23.6040311,6.7771741 C23.375981,6.33531207 23.130324,5.90518832 22.852807,5.49602576 C22.8578375,5.50189489 22.8620296,5.50776403 22.8662217,5.51363316 L20.3409015,7.00858571 L19.4588839,5.5178254 L21.7787913,4.14528625 C20.0147562,2.18751048 17.6504125,0.783110306 14.9657925,0.246503672 L14.9657925,2.95636717 L13.2344557,2.95636717 L13.2344557,0.0377301539 C12.9896371,0.0226380924 12.7473338,0 12.5,0 C12.254343,0 12.0137165,0.0226380924 11.7714132,0.0368917061 L11.7714132,2.95636717 L10.0342075,2.95636717 L10.0342075,0.246503672 C7.3495875,0.783110306 4.98524381,2.18751048 3.22120867,4.14528625 L5.5411161,5.5178254 L4.65909853,7.00858571 L2.13293983,5.51363316 C1.86129184,5.91776503 1.61982695,6.3428581 1.39513046,6.7771741 L3.9145818,8.26709595 L3.03004896,9.76288694 L0.706787846,8.38867089 C0.256556442,9.67820371 0,11.0582889 0,12.5004192 C0,13.943388 0.256556442,15.3234732 0.706787846,16.613006 L3.03004896,15.2379515 L3.91122812,16.7278734 L1.3926152,18.2186337 C1.61731169,18.6529497 1.85793816,19.0780427 2.13042458,19.4813362 L4.65658327,17.9872221 L5.5411161,19.4821746 L3.22120867,20.8555522 C4.98524381,22.8124895 7.3495875,24.2177281 10.0342075,24.7551732 L10.0342075,22.0453097 L11.7714132,22.0453097 L11.7714132,24.9639467 C12.0137165,24.9773619 12.254343,25 12.5,25 C12.7473338,25 12.9896371,24.9773619 13.2344557,24.9639467 L13.2344557,22.0453097 L14.9657925,22.0453097 L14.9657925,24.7551732 C17.6504125,24.2177281 20.0139178,22.8124895 21.7779529,20.8555522 L19.4588839,19.4821746 L20.3434167,17.9872221 L22.8695754,19.4813362 C23.1412234,19.0788812 23.3818499,18.6537881 23.6065464,18.2186337 L21.0879335,16.7278734 L21.969951,15.2379515 Z"/>
  </g>
</svg>
